<?xml version="1.0" encoding="UTF-8" standalone="no"?>
<!-- Created with Inkscape (http://www.inkscape.org/) -->

<svg
   version="1.1"
   id="svg2"
   xml:space="preserve"
   width="800"
   height="800"
   viewBox="0 0 800 800"
   sodipodi:docname="RWLogo.svg"
   inkscape:version="1.1.1 (1:1.1+202109281949+c3084ef5ed)"
   inkscape:export-filename="/mnt/a/Projects/Blog/themes/hugo-theme-stack/assets/img/RWLogo.png"
   inkscape:export-xdpi="300"
   inkscape:export-ydpi="300"
   xmlns:inkscape="http://www.inkscape.org/namespaces/inkscape"
   xmlns:sodipodi="http://sodipodi.sourceforge.net/DTD/sodipodi-0.dtd"
   xmlns="http://www.w3.org/2000/svg"
   xmlns:svg="http://www.w3.org/2000/svg"><defs
     id="defs6" /><sodipodi:namedview
     id="namedview4"
     pagecolor="#ffffff"
     bordercolor="#666666"
     borderopacity="1.0"
     inkscape:pageshadow="2"
     inkscape:pageopacity="0.0"
     inkscape:pagecheckerboard="0"
     showgrid="false"
     inkscape:zoom="0.68952167"
     inkscape:cx="196.51304"
     inkscape:cy="382.14898"
     inkscape:window-width="1848"
     inkscape:window-height="1016"
     inkscape:window-x="72"
     inkscape:window-y="27"
     inkscape:window-maximized="1"
     inkscape:current-layer="g8"
     width="800px" /><g
     id="g8"
     inkscape:groupmode="layer"
     inkscape:label="ink_ext_XXXXXX"
     transform="matrix(1.3333333,0,0,-1.3333333,0,764)"><g
       id="g10"
       transform="matrix(0.1,0,0,0.1,51.969078,-13.700931)"><path
         d="M 2450.31,2830.16 65.3086,1453.16 2450.31,76.1719 h 60 l 2385,1376.9881 -2385,1377 -30,23.59"
         style="fill:#8695c0;fill-opacity:1;fill-rule:nonzero;stroke:none"
         id="path12" /><path
         d="m 2465.31,2903.87 c 0,917.97 0,1835.97 0,2753.98 l -22.5,-13.01 C 1655.31,5190.2 867.809,4735.51 80.3086,4280.86 l -30,-51.95 V 1474.92 l 2385.0414,1376.99 29.96,10.98 z"
         style="fill:#6877a1;fill-opacity:1;fill-rule:nonzero;stroke:none"
         id="path14" /><path
         d="m 2525.31,2851.91 2385,-1376.99 v 2753.99 l -30,51.95 -2385,1376.99 V 2903.87 l -2.81,-37.85 z"
         style="fill:#8695c0;fill-opacity:1;fill-rule:nonzero;stroke:none"
         id="path16" /><path
         d="M 2480.31,5724.8 5.30859,4295.86 V 1437.97 l 0.16016,0.08 L 2480.31,9.21875 4955.16,1438.05 l 0.15,-0.08 V 4295.86 Z M 155.309,1522.97 V 4210.94 L 2480.31,5555 4805.31,4210.94 V 1537.97 l -2325,-1358.95 z"
         style="fill:#404040;fill-opacity:1;fill-rule:nonzero;stroke:none"
         id="path18" /><path
         d="m 2480.31,5659.84 -37.5,-21.48 V 2888.87 L 42.8906,1502.97 v -32.46 l 46.8789,-26.88 C 886.879,1903.24 1683.09,2364.38 2480.31,2823.75 3277.19,2363.79 4073.98,1903.67 4870.86,1443.63 l 46.87,26.88 v 32.46 L 2517.77,2889.41 v 2748.95 l -37.5,21.48 z"
         style="fill:#404040;fill-opacity:1;fill-rule:nonzero;stroke:none"
         id="path20" /><path
         d="M 1891.02,4695.2 774.73,4049.88 c -10.75,-6.21 -19.421,-23.75 -19.421,-39.22 V 2730.98 c 0,-14.96 8.562,-22 19.101,-15.67 l 1098.29,655.78 c 10.19,6.14 18.67,23.09 18.86,37.93 l 17.85,1269.3 c 0.24,15.31 -8,22.85 -18.39,16.88 z m -46.18,-81.76 -47.42,-95.39 -928.119,-538.17 -47.742,41.21 z m -59.14,-157.11 -12.26,-971.49 -894.381,-531.83 1.492,977.73 z m -991.598,-490.59 47.808,-41.13 -1.09,-1010.23 -47.269,-95.16 z m 26.449,-1168.75 47.219,95.08 915.9,545.31 45,-39.22 z m 1034.879,654.89 -45,39.25 13.09,1003.25 47.38,95.27 z"
         style="fill:#ffffff;fill-opacity:1;fill-rule:nonzero;stroke:none"
         id="path22" /><path
         d="m 984.609,3553.52 49.101,28.47 0.43,313.71 -53.831,-51.05 v 51.01 l 53.601,51.02 30.27,17.5 -0.7,-364.92 49.06,28.47 -0.16,-46.44 -127.771,-74.18 z"
         style="fill:#ffffff;fill-opacity:1;fill-rule:nonzero;stroke:none"
         id="path24" /><path
         d="m 1533.48,3652.34 56.64,32.93 5.27,364.22 -62.42,-59.18 0.78,59.34 62.15,59.1 35,20.23 -6.49,-423.75 56.57,32.89 -0.9,-53.86 -147.31,-85.71 z"
         style="fill:#ffffff;fill-opacity:1;fill-rule:nonzero;stroke:none"
         id="path26" /><path
         d="m 1382.07,3623.05 c 1.52,158.59 -19.73,225.58 -63.75,200.07 -43.94,-25.46 -66.41,-117.89 -67.42,-276.32 -1.02,-157 20.19,-222.42 63.63,-197.11 43.52,25.35 66.06,116.17 67.54,273.36 z m -173.71,-100.94 c 0.19,35.66 1.64,68.94 4.34,99.77 2.65,30.85 6.17,57.77 10.5,80.62 4.3,22.89 9.46,43.83 15.47,62.81 6.13,19.07 12.38,34.96 18.75,47.74 6.41,13 13.32,24.57 20.82,34.61 7.5,10.04 14.38,17.77 20.74,23.28 6.33,5.74 12.93,10.62 19.81,14.61 15.74,9.1 29.76,12.03 42.03,8.79 12.38,-3.21 22.54,-11.53 30.51,-25 8.08,-13.17 14.65,-31.02 19.72,-53.6 5.2,-22.5 8.75,-47.65 10.67,-75.58 2.07,-27.78 2.93,-58.64 2.58,-92.58 -0.35,-33.91 -1.88,-65.86 -4.53,-95.94 -2.54,-29.92 -6.57,-59.18 -12.11,-87.73 -5.51,-28.29 -12.46,-53.71 -20.82,-76.25 -8.21,-22.19 -18.52,-41.96 -30.94,-59.3 -12.27,-17.23 -26.21,-30.39 -41.88,-39.53 -15.5,-9.03 -29.41,-12.07 -41.64,-9.14 -12.15,3.01 -22.26,10.9 -30.31,23.63 -7.97,12.81 -14.57,30.23 -19.84,52.23 -5.16,22.42 -8.83,47.18 -11.02,74.41 -2.07,27.58 -3.05,58.28 -2.85,92.15 z"
         style="fill:#ffffff;fill-opacity:1;fill-rule:nonzero;stroke:none"
         id="path28" /><path
         d="m 1766.91,1611.99 c 12.58,29.61 19.38,55.55 33.01,92.89 314.81,-0.62 219.92,-174.1 -33.01,-92.89 z m -311.79,137.35 c -93.44,-5.9 -215,-20.55 -184.1,-94.34 21.56,-34.38 93.59,-57.42 212.81,-64.61 65.55,-3.94 155.43,3.87 208.36,14.1 36.99,8.87 35.08,6.33 41.01,14.38 6.92,30.51 15.12,60.74 23.52,91.48 -43.28,28.95 -249.81,45.39 -301.6,38.99 z m 29.8,-231.33 c -55.62,5.62 -146.91,5.62 -210.47,-3.87 -115.66,-17.34 -179.88,-46.41 -190.78,-82.5 -8.12,-76.6 117.54,-80.74 212.5,-78.59 53.63,-1.96 253.95,32.46 287.38,65.19 -18.47,29.96 -36.52,59.38 -53.39,89.06 -8.52,7.47 -5.75,5.12 -45.24,10.71 z m 139.73,-90.55 c 312.11,27.74 158.9,191.21 -63.4,89.53 22.15,-28.28 37.46,-53.47 63.4,-89.53 z"
         style="fill:#ffffff;fill-opacity:1;fill-rule:nonzero;stroke:none"
         id="path30" /><path
         d="m 2361.84,941.602 c 52.77,-9.571 99.21,-15.512 166.13,-26.293 -8.32,-185.739 -318.24,-115.93 -166.13,26.293 z m 253.75,172.188 c -8.6,54.76 -32.15,126.21 -164.77,113.24 -61.8,-10.23 -104.61,-50.31 -120.43,-118.91 -8.67,-37.81 2.93,-90.66 19.92,-122.3 14.92,-22.269 10.39,-20.941 24.73,-25 54.53,-6.289 108.63,-13.359 163.75,-20.55 53.16,23.25 87.19,142.89 76.8,173.52 z m -414.03,-1.29 c 11.45,31.84 13.95,84.53 -1.21,121.8 -27.46,67.58 -76.95,106.21 -140.19,114.68 -134.14,9.42 -145.32,-62.07 -144.46,-116.6 -5.08,-30.66 49.34,-148.4 106.21,-170.04 53.6,8.6 106.18,17 159.38,24.69 13.51,4.42 9.26,3.01 20.27,25.47 z m -164.61,-74.61 c 40.16,-183.941 336.45,-106.558 160.75,30.43 -50.86,-10.86 -96.02,-17.97 -160.75,-30.43 z"
         style="fill:#ffffff;fill-opacity:1;fill-rule:nonzero;stroke:none"
         id="path32" /><path
         d="m 2381.76,1840.66 c 14.84,-29.33 31.48,-53.94 52.22,-90.58 -271.79,-85.82 -338.36,92.81 -52.22,90.58 z m 387.26,-35.43 c 74.85,30.71 165.78,76.61 73.95,132.54 -48.75,23.95 -130.27,24.46 -238.09,-1.56 -59.33,-14.33 -129.29,-45.43 -165.66,-68.71 -23.99,-17.81 -24.53,-15.04 -22.66,-23.71 20.55,-28.59 39.77,-57.34 59.34,-86.72 62.5,-13.71 254.37,28.36 293.12,48.16 z m -227.97,193.21 c 52.11,10.15 129.61,34.68 175.2,59.92 82.77,45.82 111.64,87.73 89.26,121.29 -59.73,66.8 -168.95,37.03 -247.03,10 -46.88,-12.62 -186.6,-95.16 -186.96,-132.03 41.33,-20.71 81.88,-41.1 121.8,-62.11 13.71,-4.14 9.34,-2.85 47.73,2.93 z m -196.52,40.27 c -241.91,-107.77 28.75,-208.44 130.74,-59.92 -43.2,18.4 -77.85,35.94 -130.74,59.92 z"
         style="fill:#ffffff;fill-opacity:1;fill-rule:nonzero;stroke:none"
         id="path34" /><path
         d="m 3051.64,1587.38 c -53.94,-0.78 -99.96,-3.75 -167.58,-5.9 -96.25,171.72 225.51,163.95 167.58,5.9 z m -135.86,-207.3 c 39.34,-50.2 102.5,-113.79 218.52,-76.8 51.56,21.17 67.89,67.11 42.46,134.65 -13.95,37.03 -55.28,84.26 -89.14,110.55 -26.53,17.93 -21.6,17.54 -37.11,18.71 -53.79,-4.1 -107.54,-7.42 -162.31,-10.82 -35.82,-31.25 0.47,-149.38 27.58,-176.29 z m 382.7,77.42 c 8.12,-31.99 36.99,-82.15 73.16,-114.65 65.98,-59.22 135.39,-86.91 199.57,-83.24 130.86,16.05 97.54,86.25 63.56,137.77 -13.87,29.85 -134.89,130.2 -200.12,139.92 -44.3,-17.77 -87.85,-35.27 -132.42,-52.22 -9.89,-6.6 -6.76,-4.49 -3.75,-27.58 z m 107.81,99.84 c -144.38,162.15 -371.13,37.43 -130.16,-57.77 40.55,19.45 77.97,34.34 130.16,57.77 z"
         style="fill:#ffffff;fill-opacity:1;fill-rule:nonzero;stroke:none"
         id="path36" /></g><path
       id="path94"
       style="fill:none;stroke:none;stroke-width:0.716425;stroke-opacity:1"
       d="m 600.00001,273.00001 a 300,300 0 0 0 -300,-300.000002 A 300,300 0 0 0 8.5000002e-6,273.00001 300,300 0 0 0 300.00001,573.00001 a 300,300 0 0 0 300,-300 z" /></g></svg>
